<svg width="209" height="72" viewBox="0 0 209 72" fill="none" xmlns="http://www.w3.org/2000/svg">
<path d="M0 22.1H6.723C8.34442 22.0256 9.96009 22.3404 11.435 23.018C12.6193 23.6564 13.5205 24.7164 13.96 25.988C14.5466 27.7814 14.8116 29.6643 14.743 31.55C14.8127 33.4389 14.5525 35.3255 13.974 37.125C13.5396 38.3922 12.6424 39.4485 11.462 40.082C9.97806 40.7613 8.35325 41.076 6.723 41H0V22.1ZM6.723 39.434C7.95787 39.4931 9.18666 39.2276 10.287 38.664C11.2095 38.0997 11.892 37.2154 12.204 36.18C12.6482 34.6886 12.8488 33.1353 12.798 31.58C12.8495 30.0181 12.6444 28.4584 12.191 26.963C11.8713 25.9205 11.1855 25.0287 10.26 24.452C9.17155 23.8813 7.95064 23.611 6.723 23.669H1.944V39.434H6.723ZM19.71 25.448C19.5435 25.4492 19.3786 25.4162 19.2254 25.3512C19.0721 25.2862 18.9338 25.1905 18.819 25.07C18.6985 24.9551 18.6028 24.8168 18.5378 24.6636C18.4728 24.5104 18.4398 24.3454 18.441 24.179C18.4391 24.0145 18.4718 23.8514 18.5369 23.7003C18.602 23.5493 18.6981 23.4136 18.819 23.302C18.9357 23.1849 19.0746 23.0922 19.2277 23.0296C19.3807 22.9669 19.5447 22.9354 19.71 22.937C19.8735 22.9348 20.0357 22.966 20.1867 23.0288C20.3377 23.0916 20.4742 23.1845 20.588 23.302C20.7053 23.4156 20.7982 23.552 20.861 23.7028C20.9237 23.8536 20.955 24.0157 20.953 24.179C20.9546 24.3443 20.9231 24.5083 20.8604 24.6613C20.7978 24.8143 20.7051 24.9533 20.588 25.07C20.4763 25.191 20.3404 25.2872 20.1892 25.3523C20.0379 25.4174 19.8747 25.45 19.71 25.448ZM20.25 41.3C19.7746 41.0705 19.3759 40.7083 19.102 40.257C18.8711 39.7543 18.7648 39.2035 18.792 38.651V28.31H20.601V38.7C20.5892 38.9773 20.6495 39.2529 20.776 39.5C20.953 39.7749 21.1759 40.0174 21.435 40.217L20.25 41.3ZM30.186 41.3C28.7251 41.3943 27.2787 40.9622 26.109 40.082C25.621 39.6429 25.2388 39.099 24.991 38.4911C24.7431 37.8832 24.6361 37.2271 24.678 36.572V32.738C24.6419 32.0851 24.7542 31.4325 25.0066 30.8292C25.2589 30.2259 25.6447 29.6877 26.135 29.255C27.3005 28.3643 28.7479 27.9233 30.212 28.013C31.1557 27.9903 32.0938 28.165 32.966 28.526C33.7512 28.8758 34.4381 29.4136 34.966 30.092L33.723 31.145C33.3042 30.6006 32.7692 30.1565 32.157 29.845C31.5444 29.5783 30.8808 29.4493 30.213 29.467C29.2241 29.4073 28.2479 29.715 27.472 30.331C27.1403 30.6331 26.8798 31.0051 26.7095 31.4202C26.5391 31.8352 26.4631 32.283 26.487 32.731V36.565C26.4596 37.0133 26.5313 37.4622 26.6969 37.8797C26.8624 38.2972 27.1178 38.6732 27.445 38.981C28.2219 39.594 29.1985 39.8972 30.186 39.832C30.9085 39.8508 31.6267 39.7144 32.292 39.432C32.8945 39.1551 33.4153 38.7273 33.804 38.19L35.046 39.243C34.5432 39.932 33.8617 40.4704 33.075 40.8C32.1546 41.1564 31.1726 41.3263 30.186 41.3ZM39.986 29.771V37.331C39.986 38.931 40.688 39.731 42.092 39.731H43.635V41.162H42.093C41.0189 41.2545 39.9517 40.9196 39.123 40.23C38.7799 39.8342 38.5195 39.3736 38.3572 38.8756C38.1949 38.3775 38.134 37.852 38.178 37.33V25.367C38.1898 25.0897 38.1295 24.814 38.003 24.567C37.8249 24.2925 37.601 24.0507 37.341 23.852L38.556 22.772C39.0203 23.0059 39.409 23.3665 39.677 23.812C39.9079 24.3146 40.0142 24.8655 39.987 25.418V28.307H43.635V29.765L39.986 29.771ZM47.786 25.451C47.6195 25.4522 47.4546 25.4192 47.3014 25.3542C47.1481 25.2892 47.0098 25.1935 46.895 25.073C46.7745 24.9581 46.6788 24.8198 46.6138 24.6666C46.5488 24.5134 46.5158 24.3484 46.517 24.182C46.5151 24.0175 46.5478 23.8544 46.6129 23.7034C46.678 23.5523 46.7741 23.4166 46.895 23.305C47.0117 23.1879 47.1507 23.0952 47.3037 23.0325C47.4567 22.9699 47.6207 22.9384 47.786 22.94C47.9493 22.9379 48.1114 22.9692 48.2622 23.032C48.413 23.0948 48.5494 23.1877 48.663 23.305C48.7803 23.4186 48.8732 23.555 48.936 23.7058C48.9987 23.8566 49.0301 24.0187 49.028 24.182C49.0296 24.3473 48.9981 24.5113 48.9354 24.6643C48.8728 24.8173 48.7801 24.9563 48.663 25.073C48.5516 25.1928 48.4164 25.2881 48.2661 25.3527C48.1158 25.4172 47.9536 25.4497 47.79 25.448L47.786 25.451ZM48.335 41.3C47.8581 41.0712 47.4579 40.7088 47.183 40.257C46.9518 39.7544 46.8451 39.2035 46.872 38.651V28.31H48.681V38.7C48.6692 38.9773 48.7295 39.2529 48.856 39.5C49.0338 39.7744 49.2574 40.0162 49.517 40.215L48.335 41.3ZM58.135 41.3C56.7 41.3878 55.285 40.9286 54.175 40.015C53.6922 39.5533 53.3154 38.9923 53.0708 38.3708C52.8261 37.7492 52.7194 37.0819 52.758 36.415V32.9C52.7194 32.2331 52.8261 31.5658 53.0708 30.9442C53.3154 30.3226 53.6922 29.7616 54.175 29.3C55.2847 28.3856 56.6997 27.9257 58.135 28.013C59.5672 27.928 60.9786 28.3877 62.086 29.3C62.569 29.7615 62.9459 30.3225 63.1908 30.9441C63.4356 31.5657 63.5425 32.233 63.504 32.9V36.41C63.5425 37.0769 63.4356 37.7443 63.1908 38.3659C62.9459 38.9875 62.569 39.5484 62.086 40.01C60.979 40.9233 59.5676 41.3841 58.135 41.3ZM58.135 39.842C59.0954 39.903 60.0411 39.5828 60.767 38.951C61.09 38.6153 61.3394 38.216 61.4991 37.7784C61.6589 37.3409 61.7257 36.8748 61.695 36.41V32.9C61.7247 32.4354 61.6572 31.9697 61.4967 31.5327C61.3362 31.0957 61.0863 30.6969 60.763 30.362C60.0371 29.7302 59.0914 29.41 58.131 29.471C57.1706 29.41 56.2249 29.7302 55.499 30.362C55.1757 30.6969 54.9258 31.0957 54.7653 31.5327C54.6048 31.9697 54.5373 32.4354 54.567 32.9V36.41C54.5372 36.8745 54.6046 37.3402 54.7649 37.7772C54.9252 38.2142 55.1749 38.6129 55.498 38.948C56.2251 39.5811 57.1729 39.9013 58.135 39.839V39.842ZM73.602 28.013C74.1548 27.9814 74.708 28.0673 75.2251 28.2652C75.7422 28.4631 76.2115 28.7684 76.602 29.161C77.362 30.0369 77.7496 31.1752 77.682 32.333V41H75.87V32.6C75.9218 31.7688 75.6674 30.9474 75.155 30.291C74.9067 30.0144 74.5996 29.797 74.2563 29.6546C73.913 29.5121 73.5422 29.4484 73.171 29.468C72.6986 29.4645 72.2306 29.5586 71.7962 29.7444C71.3619 29.9303 70.9706 30.2039 70.647 30.548C69.8806 31.3723 69.3531 32.3897 69.121 33.491V41H67.311V30.605C67.3228 30.3277 67.2625 30.052 67.136 29.805C66.9583 29.5303 66.7347 29.2881 66.475 29.089L67.663 28.009C68.138 28.2376 68.5367 28.5988 68.811 29.049C69.042 29.5519 69.1484 30.1032 69.121 30.656V30.899C69.5162 30.0274 70.1478 29.284 70.944 28.753C71.7382 28.2507 72.6626 27.9934 73.602 28.013Z" fill="#052D39"/>
<g filter="url(#filter0_d_1_3)">
<path d="M96.435 17H180.435C182.557 17 184.592 17.8429 186.092 19.3431C187.592 20.8434 188.435 22.8783 188.435 25V41C188.435 43.1217 187.592 45.1566 186.092 46.6569C184.592 48.1571 182.557 49 180.435 49H96.435C94.3133 49 92.2784 48.1571 90.7781 46.6569C89.2779 45.1566 88.435 43.1217 88.435 41V25C88.435 22.8783 89.2779 20.8434 90.7781 19.3431C92.2784 17.8429 94.3133 17 96.435 17Z" fill="#052D39"/>
</g>
<path d="M97.05 26.7H98.435C99.0061 26.6772 99.5757 26.7743 100.107 26.985C100.54 27.1866 100.913 27.4966 101.19 27.885C101.597 28.4724 101.953 29.0929 102.256 29.74L103.356 31.963L104.456 29.74C104.758 29.094 105.114 28.4745 105.52 27.888C105.797 27.4996 106.17 27.1896 106.603 26.988C107.134 26.7773 107.704 26.6802 108.275 26.703H109.662V40H107.235V29.493C107.159 29.4935 107.085 29.5128 107.019 29.5493C106.952 29.5858 106.896 29.6383 106.855 29.702C106.754 29.8413 106.602 30.0883 106.399 30.443L103.358 36.086L100.318 30.443C100.118 30.0883 99.966 29.8413 99.862 29.702C99.8198 29.6379 99.7638 29.5841 99.698 29.5447C99.6322 29.5052 99.5584 29.481 99.482 29.474V40H97.05V26.7ZM122.335 36.9H117.135L116.24 40H113.561L116.81 29.4C116.978 28.7839 117.22 28.1905 117.532 27.633C117.742 27.2569 118.054 26.9475 118.432 26.74C118.838 26.5504 119.284 26.4592 119.732 26.474C120.178 26.4582 120.621 26.5494 121.024 26.74C121.399 26.9508 121.71 27.2594 121.924 27.633C122.242 28.1885 122.488 28.7823 122.656 29.4L125.911 40H123.235L122.335 36.9ZM121.746 34.905L120.146 29.433C120.057 29.1037 119.918 28.939 119.728 28.939C119.538 28.939 119.399 29.1037 119.31 29.433L117.71 34.905H121.746ZM133.226 40.228C132.452 40.2485 131.679 40.1472 130.936 39.928C130.37 39.7521 129.844 39.4682 129.387 39.092C128.904 38.6668 128.471 38.1888 128.095 37.667L129.9 36.167C130.3 36.7703 130.813 37.29 131.411 37.697C131.963 38.0112 132.591 38.166 133.225 38.144C133.98 38.1965 134.736 38.043 135.411 37.7C135.639 37.5483 135.822 37.3386 135.943 37.0926C136.063 36.8466 136.115 36.5731 136.095 36.3C136.1 36.1504 136.074 36.0014 136.019 35.8624C135.963 35.7235 135.879 35.5977 135.772 35.493C135.446 35.2239 135.068 35.0263 134.661 34.913C133.89 34.673 133.107 34.4764 132.314 34.324C131.29 34.1702 130.341 33.6942 129.606 32.965C128.991 32.2378 128.675 31.3035 128.723 30.352C128.707 29.6225 128.916 28.9059 129.323 28.3C129.748 27.6962 130.338 27.2279 131.023 26.951C131.837 26.6192 132.71 26.4576 133.588 26.476C134.625 26.4307 135.658 26.6226 136.609 27.037C137.355 27.4079 137.986 27.9744 138.435 28.676L136.665 30.12C136.354 29.8035 136.028 29.5031 135.686 29.22C135.422 29.0087 135.123 28.845 134.803 28.736C134.41 28.6126 133.999 28.5548 133.587 28.565C133.003 28.5223 132.423 28.6909 131.953 29.04C131.766 29.2115 131.619 29.4226 131.524 29.6578C131.429 29.8931 131.387 30.1466 131.402 30.4C131.388 30.6501 131.447 30.8988 131.571 31.1163C131.695 31.3338 131.88 31.5108 132.102 31.626C132.669 31.9211 133.275 32.1352 133.902 32.262C134.784 32.4326 135.653 32.6666 136.502 32.962C137.136 33.1938 137.694 33.5946 138.117 34.121C138.579 34.7525 138.807 35.5248 138.763 36.306C138.804 36.8736 138.7 37.4424 138.461 37.9589C138.222 38.4755 137.856 38.9228 137.397 39.259C136.135 39.9928 134.682 40.3304 133.226 40.228ZM145.386 28.79H141.377V26.7H152.077V28.79H148.065V40H145.386V28.79ZM159.712 40C158.411 40.1222 157.112 39.7414 156.083 38.936C155.698 38.5264 155.401 38.0415 155.212 37.5119C155.022 36.9822 154.944 36.4192 154.983 35.858V30.842C154.944 30.2809 155.022 29.7178 155.212 29.1881C155.401 28.6585 155.698 28.1736 156.083 27.764C157.112 26.9586 158.411 26.5778 159.712 26.7H164.158V28.79H159.712C159.151 28.7439 158.594 28.9215 158.163 29.284C157.98 29.497 157.841 29.7447 157.755 30.0123C157.669 30.2799 157.638 30.5621 157.663 30.842V32.3H163.325V34.4H157.66V35.863C157.637 36.1413 157.669 36.4214 157.755 36.6872C157.841 36.9529 157.978 37.1989 158.16 37.411C158.372 37.5928 158.618 37.7306 158.884 37.8165C159.15 37.9023 159.431 37.9344 159.709 37.911H164.193V40H159.712ZM179.149 40H176.318L175.444 37.055C175.313 36.5673 175.134 36.0935 174.912 35.64C174.75 35.3199 174.499 35.0527 174.19 34.87C173.815 34.6746 173.396 34.5814 172.974 34.6H171.055V40H168.376V26.7H173.753C175.025 26.5992 176.292 26.9381 177.344 27.66C177.752 28.0381 178.068 28.504 178.268 29.0224C178.469 29.5408 178.549 30.098 178.503 30.652C178.54 31.4165 178.293 32.1677 177.81 32.761C177.311 33.3133 176.636 33.6758 175.9 33.787C176.507 33.9721 177.026 34.3702 177.363 34.908C177.756 35.5891 178.063 36.3167 178.275 37.074L179.149 40ZM173.829 32.514C174.348 32.5356 174.857 32.3706 175.264 32.049C175.458 31.8739 175.609 31.6567 175.707 31.414C175.804 31.1713 175.844 30.9096 175.824 30.649C175.844 30.3884 175.804 30.1267 175.707 29.884C175.609 29.6413 175.458 29.4241 175.264 29.249C174.857 28.9274 174.348 28.7624 173.829 28.784H171.055V32.508L173.829 32.514Z" fill="white"/>
<defs>
<filter id="filter0_d_1_3" x="68.435" y="0" width="140" height="72" filterUnits="userSpaceOnUse" color-interpolation-filters="sRGB">
<feFlood flood-opacity="0" result="BackgroundImageFix"/>
<feColorMatrix in="SourceAlpha" type="matrix" values="0 0 0 0 0 0 0 0 0 0 0 0 0 0 0 0 0 0 127 0" result="hardAlpha"/>
<feOffset dy="3"/>
<feGaussianBlur stdDeviation="10"/>
<feColorMatrix type="matrix" values="0 0 0 0 0.0156863 0 0 0 0 0.105882 0 0 0 0 0.25098 0 0 0 0.161 0"/>
<feBlend mode="normal" in2="BackgroundImageFix" result="effect1_dropShadow_1_3"/>
<feBlend mode="normal" in="SourceGraphic" in2="effect1_dropShadow_1_3" result="shape"/>
</filter>
</defs>
</svg>
