<svg xmlns="http://www.w3.org/2000/svg" width="22.948" height="20.403" viewBox="0 0 22.948 20.403">
  <g id="audio-speaker-on" transform="translate(0 -6.393)">
    <path id="Path_14" data-name="Path 14" d="M9.534,13.317,5.175,16.581H1.194A1.2,1.2,0,0,0,0,17.775v8.32a1.2,1.2,0,0,0,1.194,1.194H5.175l4.359,3.264a1.188,1.188,0,0,0,1.911-.955V14.272A1.191,1.191,0,0,0,9.534,13.317Z" transform="translate(0 -5.349)" fill="#fff"/>
    <path id="Path_15" data-name="Path 15" d="M67.749,22.484a1.393,1.393,0,0,0-1.97,1.97,6.631,6.631,0,0,1,0,9.375,1.405,1.405,0,0,0,0,1.97,1.369,1.369,0,0,0,1.95-.02A9.364,9.364,0,0,0,67.749,22.484Z" transform="translate(-52.364 -12.565)" fill="#fff"/>
    <path id="Path_16" data-name="Path 16" d="M83.479,6.794a1.406,1.406,0,0,0,0,1.97,11.051,11.051,0,0,1,0,15.644,1.4,1.4,0,0,0,.975,2.388,1.386,1.386,0,0,0,.975-.4,13.839,13.839,0,0,0,0-19.585A1.363,1.363,0,0,0,83.479,6.794Z" transform="translate(-66.541 0)" fill="#fff"/>
  </g>
</svg>
