<svg width="118" height="118" viewBox="0 0 118 118" fill="none" xmlns="http://www.w3.org/2000/svg">
<g filter="url(#filter0_d_7_5)">
<path d="M83 17H35C26.7157 17 20 23.7157 20 32V80C20 88.2843 26.7157 95 35 95H83C91.2843 95 98 88.2843 98 80V32C98 23.7157 91.2843 17 83 17Z" fill="white"/>
</g>
<path d="M83.4074 69.069C82.0484 69.1402 80.7734 69.7484 79.8629 70.7596C78.9523 71.7709 78.4807 73.1025 78.552 74.4615C78.6232 75.8205 79.2313 77.0955 80.2426 78.006C81.2539 78.9166 82.5855 79.3881 83.9445 79.3169L78.184 83.6243L43.4057 85.447L36.2011 76.681L41.1023 67.6341L81.452 65.5195L83.4074 69.069Z" fill="#EAEAEA"/>
<path d="M39.434 26.477C38.1774 26.5427 36.946 26.8554 35.8102 27.397C34.6744 27.9387 33.6564 28.6988 32.8144 29.634C31.9724 30.5691 31.3229 31.661 30.9029 32.8472C30.4829 34.0334 30.3007 35.2907 30.3667 36.5474L32.4803 76.877L35.5824 73.5511L41.1014 67.6351L44.9131 67.4144L49.0618 46.5687L42.7595 26.3027L39.434 26.477Z" fill="#5BD6FD"/>
<path d="M79.1885 24.3935L42.7595 26.3027L44.914 67.4133L87.0895 64.9807L85.2484 29.8499C85.1683 28.3227 84.4849 26.8899 83.3485 25.8667C82.212 24.8434 80.7156 24.3135 79.1885 24.3935Z" fill="#81DDFD"/>
<path d="M63.2912 45.2101C64.2984 45.1563 65.2591 44.7692 66.0223 44.1096L70.0495 41.1418L74.3639 43.6725C75.1915 44.2497 76.1875 44.5353 77.1952 44.4844C78.3623 44.4242 79.4621 43.9194 80.2686 43.0736C80.6997 42.6257 81.0335 42.0935 81.249 41.5105C81.4645 40.9274 81.5571 40.306 81.521 39.6854L80.763 25.2223C80.7503 24.9833 80.7228 24.7452 80.6806 24.5096C80.1904 24.4063 79.6888 24.3673 79.1885 24.3936L57.7549 25.5168C57.7224 25.8199 57.714 26.125 57.7296 26.4294L58.4875 40.8906C58.553 42.0999 59.0956 43.2339 59.9961 44.0437C60.8967 44.8535 62.0817 45.2729 63.2912 45.2101Z" fill="#5BD6FD"/>
<path d="M74.8651 22.7606L63.3399 23.3646C62.6071 23.403 61.9195 23.7309 61.4284 24.2763C60.9374 24.8217 60.6831 25.5398 60.7215 26.2726L61.4794 40.7338C61.4949 41.0336 61.5963 41.3227 61.7715 41.5665C61.9466 41.8104 62.1882 41.9987 62.4674 42.1091C62.7466 42.2195 63.0517 42.2474 63.3462 42.1893C63.6408 42.1312 63.9125 41.9897 64.1289 41.7815L69.8616 37.5567L76.0046 41.1592C76.2416 41.3431 76.5266 41.4551 76.8254 41.4818C77.1243 41.5086 77.4245 41.4489 77.6905 41.31C77.9565 41.1711 78.177 40.9588 78.3258 40.6982C78.4746 40.4376 78.5455 40.1398 78.53 39.8402L77.7721 25.379C77.7337 24.6463 77.4059 23.9589 76.8608 23.4679C76.3156 22.9769 75.5978 22.7224 74.8651 22.7606Z" fill="#FF6F7F"/>
<path d="M56.2077 47.0303L56.1964 47.0049C56.0946 46.7885 55.9306 46.6074 55.7252 46.4849C55.5198 46.3623 55.2826 46.304 55.0438 46.3172C54.8047 46.3292 54.5747 46.4123 54.3833 46.556C54.1918 46.6997 54.0478 46.8974 53.9695 47.1236L53.9617 47.146L50.708 57.2501C50.628 57.4968 50.6493 57.7652 50.7671 57.9962C50.8849 58.2272 51.0897 58.4019 51.3364 58.4819C51.583 58.562 51.8514 58.5407 52.0824 58.4229C52.3134 58.3051 52.4881 58.1003 52.5682 57.8536L53.1709 55.9785L57.8874 55.7313L58.6766 57.5305C58.7273 57.6493 58.8009 57.757 58.8934 57.8471C58.9859 57.9373 59.0954 58.0083 59.2154 58.0559C59.3355 58.1035 59.4639 58.1268 59.593 58.1245C59.7222 58.1222 59.8496 58.0943 59.9679 58.0424C60.0862 57.9905 60.193 57.9157 60.2822 57.8222C60.3714 57.7288 60.4412 57.6186 60.4875 57.498C60.5338 57.3774 60.5558 57.2489 60.5521 57.1197C60.5484 56.9906 60.5192 56.8635 60.466 56.7458L56.2077 47.0303ZM53.8133 53.9831L55.2145 49.6309L57.0489 53.8136L53.8133 53.9831Z" fill="white"/>
<path d="M79.3309 55.1192L74.4277 55.3762L79.5445 46.5453C79.6326 46.3931 79.678 46.2199 79.6759 46.0441C79.6737 45.8682 79.6242 45.6962 79.5324 45.5462C79.4407 45.3962 79.3102 45.2737 79.1546 45.1916C78.999 45.1096 78.8242 45.0711 78.6486 45.0802L72.3073 45.4125C72.1792 45.4192 72.0536 45.4511 71.9378 45.5063C71.822 45.5616 71.7182 45.6391 71.6324 45.7344C71.5465 45.8298 71.4803 45.9411 71.4375 46.062C71.3946 46.183 71.3761 46.3112 71.3828 46.4393C71.3895 46.5674 71.4214 46.693 71.4766 46.8088C71.5318 46.9246 71.6093 47.0284 71.7047 47.1142C71.8 47.2001 71.9114 47.2663 72.0323 47.3091C72.1532 47.352 72.2814 47.3705 72.4096 47.3638L76.9503 47.1259L71.8335 55.9568C71.7454 56.109 71.7 56.2821 71.7021 56.458C71.7043 56.6338 71.7538 56.8058 71.8456 56.9559C71.9373 57.1059 72.0678 57.2284 72.2234 57.3104C72.379 57.3924 72.5538 57.4309 72.7294 57.4219L79.4332 57.0705C79.692 57.057 79.9347 56.9412 80.1081 56.7486C80.2815 56.5561 80.3713 56.3025 80.3577 56.0437C80.3442 55.785 80.2284 55.5422 80.0358 55.3688C79.8433 55.1954 79.5897 55.1057 79.3309 55.1192Z" fill="white"/>
<path d="M69.1551 50.6156L63.0734 50.9343C62.9453 50.9411 62.8198 50.9729 62.704 51.0282C62.5882 51.0834 62.4844 51.1609 62.3985 51.2563C62.3127 51.3516 62.2464 51.4629 62.2036 51.5839C62.1608 51.7048 62.1422 51.833 62.1489 51.9611C62.1556 52.0893 62.1875 52.2148 62.2427 52.3306C62.298 52.4464 62.3755 52.5502 62.4708 52.6361C62.5662 52.7219 62.6775 52.7881 62.7984 52.831C62.9194 52.8738 63.0476 52.8924 63.1757 52.8857L69.2574 52.5669C69.3855 52.5602 69.511 52.5283 69.6268 52.4731C69.7426 52.4179 69.8464 52.3404 69.9323 52.245C70.0181 52.1497 70.0844 52.0383 70.1272 51.9174C70.17 51.7965 70.1886 51.6683 70.1819 51.5401C70.1752 51.412 70.1433 51.2865 70.0881 51.1707C70.0328 51.0549 69.9553 50.9511 69.86 50.8652C69.7646 50.7794 69.6533 50.7131 69.5324 50.6703C69.4114 50.6275 69.2832 50.6089 69.1551 50.6156Z" fill="white"/>
<path d="M41.1013 67.6342L36.2011 76.681L78.552 74.4615C78.4824 73.1029 78.9545 71.7722 79.8647 70.7613C80.7749 69.7504 82.049 69.1418 83.4074 69.069L81.451 65.5195L41.1013 67.6342Z" fill="#E2E2E2"/>
<path d="M84.3527 87.0872L46.0503 89.0945C42.6305 89.2738 39.2796 88.0871 36.7347 85.7957C34.1898 83.5043 32.6594 80.2958 32.4802 76.876C32.301 73.4562 33.4876 70.1053 35.779 67.5604C38.0704 65.0155 41.279 63.4852 44.6987 63.3059L83.0012 61.2986C84.0316 61.2446 85.0412 61.6021 85.808 62.2925C86.5748 62.983 87.036 63.9497 87.09 64.9801C87.144 66.0105 86.7864 67.0202 86.096 67.787C85.4056 68.5538 84.4388 69.0149 83.4084 69.0689L45.106 71.0763C43.747 71.1475 42.472 71.7556 41.5614 72.7669C40.6509 73.7782 40.1793 75.1098 40.2505 76.4688C40.3218 77.8277 40.9299 79.1027 41.9412 80.0133C42.9525 80.9239 44.2841 81.3954 45.643 81.3242L83.9455 79.3169C84.9759 79.2629 85.9855 79.6204 86.7523 80.3108C87.5191 81.0012 87.9803 81.968 88.0343 82.9984C88.0883 84.0288 87.7307 85.0385 87.0403 85.8053C86.3499 86.5721 85.3831 87.0332 84.3527 87.0872Z" fill="#A4E6FF"/>
<defs>
<filter id="filter0_d_7_5" x="0" y="0" width="118" height="118" filterUnits="userSpaceOnUse" color-interpolation-filters="sRGB">
<feFlood flood-opacity="0" result="BackgroundImageFix"/>
<feColorMatrix in="SourceAlpha" type="matrix" values="0 0 0 0 0 0 0 0 0 0 0 0 0 0 0 0 0 0 127 0" result="hardAlpha"/>
<feOffset dy="3"/>
<feGaussianBlur stdDeviation="10"/>
<feColorMatrix type="matrix" values="0 0 0 0 0.0156863 0 0 0 0 0.105882 0 0 0 0 0.25098 0 0 0 0.161 0"/>
<feBlend mode="normal" in2="BackgroundImageFix" result="effect1_dropShadow_7_5"/>
<feBlend mode="normal" in="SourceGraphic" in2="effect1_dropShadow_7_5" result="shape"/>
</filter>
</defs>
</svg>
